<svg xmlns:xlink="http://www.w3.org/1999/xlink" xmlns="http://www.w3.org/2000/svg" class="ico-svg" width="14" height="14" viewBox="0 0 14 14">
                                <path d="M1.5 1C1.22386 1 1 1.22386 1 1.5V12.5C1 12.7761 1.22386 13 1.5 13H12.5C12.7761 13 13 12.7761 13 12.5V1.5C13 1.22386 12.7761 1 12.5 1H1.5ZM0 1.5C0 0.671573 0.671573 0 1.5 0H12.5C13.3284 0 14 0.671573 14 1.5V12.5C14 13.3284 13.3284 14 12.5 14H1.5C0.671573 14 0 13.3284 0 12.5V1.5Z M5 0C5.27614 0 5.5 0.223858 5.5 0.5V13.5C5.5 13.7761 5.27614 14 5 14C4.72386 14 4.5 13.7761 4.5 13.5V0.5C4.5 0.223858 4.72386 0 5 0Z M9 0C9.27614 0 9.5 0.223858 9.5 0.5V13.5C9.5 13.7761 9.27614 14 9 14C8.72386 14 8.5 13.7761 8.5 13.5V0.5C8.5 0.223858 8.72386 0 9 0Z M0 5C0 4.72386 0.223858 4.5 0.5 4.5H13.5C13.7761 4.5 14 4.72386 14 5C14 5.27614 13.7761 5.5 13.5 5.5H0.5C0.223858 5.5 0 5.27614 0 5Z M0 9C0 8.72386 0.223858 8.5 0.5 8.5H13.5C13.7761 8.5 14 8.72386 14 9C14 9.27614 13.7761 9.5 13.5 9.5H0.5C0.223858 9.5 0 9.27614 0 9Z" fill="#222222"></path>
                            </svg>