<svg xmlns:xlink="http://www.w3.org/1999/xlink" xmlns="http://www.w3.org/2000/svg" class="ico-svg ico--right" width="15" height="16" viewBox="0 0 15 16">
                                    <path d="M9.54947 0H4.63158C2.08842 0 0 2.07158 0 4.63158V8.67368C0 9.04421 0.303158 9.34737 0.673684 9.34737C1.04421 9.34737 1.34737 9.04421 1.34737 8.67368V4.63158C1.34737 2.82947 2.81263 1.36421 4.61474 1.36421H9.51579C11.3516 1.36421 12.8168 2.82947 12.8168 4.63158V8.16842C12.8168 9.97053 11.3516 11.4358 9.54947 11.4358H3.46947L5.50737 9.39789C5.77684 9.12842 5.77684 8.70737 5.50737 8.43789C5.23789 8.16842 4.81684 8.16842 4.54737 8.43789L1.34737 11.6379C1.07789 11.9074 1.07789 12.3284 1.34737 12.5979L4.54737 15.7979C4.68211 15.9326 4.85053 16 5.03579 16C5.20421 16 5.38947 15.9326 5.52421 15.7979C5.79368 15.5284 5.79368 15.1074 5.52421 14.8379L3.46947 12.8H9.54947C12.1095 12.8 14.1811 10.7284 14.1811 8.16842V4.63158C14.1811 2.07158 12.0926 0 9.54947 0Z" fill="#222222"></path>
                                    </svg>