<svg xmlns:xlink="http://www.w3.org/1999/xlink" xmlns="http://www.w3.org/2000/svg" class="nav-filters__ico" width="19" height="14" viewBox="0 0 19 14" fill="none">
            <path d="M0 2.5C0 1.11929 1.11929 0 2.5 0C3.88071 0 5 1.11929 5 2.5V11.5C5 12.8807 3.88071 14 2.5 14C1.11929 14 0 12.8807 0 11.5V2.5Z" fill="#E4AAA3"></path>
            <path d="M7 2.5C7 1.11929 8.11929 0 9.5 0C10.8807 0 12 1.11929 12 2.5V11.5C12 12.8807 10.8807 14 9.5 14C8.11929 14 7 12.8807 7 11.5V2.5Z" fill="#907DCD"></path>
            <path d="M14 2.5C14 1.11929 15.1193 0 16.5 0C17.8807 0 19 1.11929 19 2.5V11.5C19 12.8807 17.8807 14 16.5 14C15.1193 14 14 12.8807 14 11.5V2.5Z" fill="#5A4FDB"></path>
            </svg>