<svg xmlns:xlink="http://www.w3.org/1999/xlink" xmlns="http://www.w3.org/2000/svg" class="ico-svg" width="14" height="14" viewBox="0 0 14 14">
                            <path d="M11 0.5C11 0.223858 11.2239 0 11.5 0H12.5C12.8978 0 13.2794 0.158035 13.5607 0.43934C13.842 0.720644 14 1.10217 14 1.5V2.5C14 2.77614 13.7761 3 13.5 3C13.2239 3 13 2.77614 13 2.5V1.5C13 1.36739 12.9473 1.24022 12.8536 1.14645C12.7598 1.05268 12.6326 1 12.5 1H11.5C11.2239 1 11 0.776142 11 0.5Z M1.5 1C1.36739 1 1.24021 1.05268 1.14645 1.14645C1.05268 1.24021 1 1.36739 1 1.5V2.5C1 2.77614 0.776142 3 0.5 3C0.223858 3 0 2.77614 0 2.5V1.5C0 1.10218 0.158035 0.720644 0.43934 0.43934C0.720644 0.158035 1.10218 0 1.5 0H2.5C2.77614 0 3 0.223858 3 0.5C3 0.776142 2.77614 1 2.5 1H1.5Z M5 0.5C5 0.223858 5.22386 0 5.5 0H8.5C8.77614 0 9 0.223858 9 0.5C9 0.776142 8.77614 1 8.5 1H5.5C5.22386 1 5 0.776142 5 0.5Z M13.5 5C13.7761 5 14 5.22386 14 5.5V8.5C14 8.77614 13.7761 9 13.5 9C13.2239 9 13 8.77614 13 8.5V5.5C13 5.22386 13.2239 5 13.5 5Z M0.5 5C0.776142 5 1 5.22386 1 5.5V8.5C1 8.77614 0.776142 9 0.5 9C0.223858 9 0 8.77614 0 8.5V5.5C0 5.22386 0.223858 5 0.5 5Z M7 5C7.27614 5 7.5 5.22386 7.5 5.5V8.5C7.5 8.77614 7.27614 9 7 9C6.72386 9 6.5 8.77614 6.5 8.5V5.5C6.5 5.22386 6.72386 5 7 5Z M5 7C5 6.72386 5.22386 6.5 5.5 6.5H8.5C8.77614 6.5 9 6.72386 9 7C9 7.27614 8.77614 7.5 8.5 7.5H5.5C5.22386 7.5 5 7.27614 5 7Z M11 7C11 6.72386 11.2239 6.5 11.5 6.5H13.5C13.7761 6.5 14 6.72386 14 7C14 7.27614 13.7761 7.5 13.5 7.5H11.5C11.2239 7.5 11 7.27614 11 7Z M0 7C0 6.72386 0.223858 6.5 0.5 6.5H2.5C2.77614 6.5 3 6.72386 3 7C3 7.27614 2.77614 7.5 2.5 7.5H0.5C0.223858 7.5 0 7.27614 0 7Z M13.5 11C13.7761 11 14 11.2239 14 11.5V12.5C14 12.8978 13.842 13.2794 13.5607 13.5607C13.2794 13.842 12.8978 14 12.5 14H11.5C11.2239 14 11 13.7761 11 13.5C11 13.2239 11.2239 13 11.5 13H12.5C12.6326 13 12.7598 12.9473 12.8536 12.8536C12.9473 12.7598 13 12.6326 13 12.5V11.5C13 11.2239 13.2239 11 13.5 11Z M0.5 11C0.776142 11 1 11.2239 1 11.5V12.5C1 12.6326 1.05268 12.7598 1.14645 12.8536C1.24022 12.9473 1.36739 13 1.5 13H2.5C2.77614 13 3 13.2239 3 13.5C3 13.7761 2.77614 14 2.5 14H1.5C1.10217 14 0.720644 13.842 0.43934 13.5607C0.158035 13.2794 0 12.8978 0 12.5V11.5C0 11.2239 0.223858 11 0.5 11Z M5 13.5C5 13.2239 5.22386 13 5.5 13H8.5C8.77614 13 9 13.2239 9 13.5C9 13.7761 8.77614 14 8.5 14H5.5C5.22386 14 5 13.7761 5 13.5Z M7 0C7.27614 0 7.5 0.223858 7.5 0.5V2.5C7.5 2.77614 7.27614 3 7 3C6.72386 3 6.5 2.77614 6.5 2.5V0.5C6.5 0.223858 6.72386 0 7 0Z M7 11C7.27614 11 7.5 11.2239 7.5 11.5V13.5C7.5 13.7761 7.27614 14 7 14C6.72386 14 6.5 13.7761 6.5 13.5V11.5C6.5 11.2239 6.72386 11 7 11Z" fill="#222222"></path>
                        </svg>